{"title":"Hugo 2011 CAM XViD DTRG","uid":6879677,"size":1421294558,"categoryP":"video","categoryS":"movies","magnet":"?xt=urn:btih:2529ef9dedee0968d994602f44def3c1304ca846&amp;dn=Hugo+2011+CAM+XViD+DTRG&amp;tr=udp%3A%2F%2Ftracker.openbittorrent.com%3A80&amp;tr=udp%3A%2F%2Fopen.demonii.com%3A1337&amp;tr=udp%3A%2F%2Ftracker.coppersurfer.tk%3A6969&amp;tr=udp%3A%2F%2Fexodus.desync.com%3A6969","seeders":0,"leechers":0,"uploader":"TPBAgri2","files":-1,"time":1323564013,"description":" &lt;a href=&quot;http://www.imdb.com/title/tt0970179/&quot; rel=&quot;nofollow&quot; target=&quot;_NEW&quot;&gt;http://www.imdb.com/title/tt0970179/&lt;/a&gt;\n\nFormat                           : AVI\nFormat/Info                      : Audio Video Interleave\nFile size                        : 1.31 GiB\nDuration                         : 2h 0mn\nOverall bit rate                 : 1 555 Kbps\nWriting application              : VirtualDubMod 1.5.10.2 (build 2540/release)\nWriting library                  : VirtualDubMod build 2540/release\n\nVideo\nID                               : 0\nFormat                           : MPEG-4 Visual\nFormat profile                   : Advanced Simple@L5\nFormat settings, BVOP            : 1\nFormat settings, QPel            : No\nFormat settings, GMC             : No warppoints\nFormat settings, Matrix          : Default (H.263)\nMuxing mode                      : Packed bitstream\nCodec ID                         : XVID\nCodec ID/Hint                    : XviD\nDuration                         : 2h 0mn\nBit rate                         : 1 321 Kbps\nWidth                            : 720 pixels\nHeight                           : 320 pixels\nDisplay aspect ratio             : 2.25:1\nFrame rate                       : 24.000 fps\nColor space                      : YUV\nChroma subsampling               : 4:2:0\nBit depth                        : 8 bits\nScan type                        : Progressive\nCompression mode                 : Lossy\nBits/(Pixel*Frame)               : 0.239\nStream size                      : 1.12 GiB (85%)\nWriting library                  : XviD 64\n\nAudio\nID                               : 1\nFormat                           : AC-3\nFormat/Info                      : Audio Coding 3\nMode extension                   : CM (complete main)\nCodec ID                         : 2000\nDuration                         : 2h 0mn\nBit rate mode                    : Constant\nBit rate                         : 224 Kbps\nChannel(s)                       : 2 channels\nChannel positions                : Front: L R\nSampling rate                    : 44.1 KHz\nBit depth                        : 16 bits\nCompression mode                 : Lossy\nDelay relative to video          : 35ms\nStream size                      : 194 MiB (14%)\nAlignment                        : Split accross interleaves\nInterleave, duration             : 42 ms (1.00 video frame)\nInterleave, preload duration     : 500 ms\n\nSource Used\n\n\niLLUMiNATi..............Thanks\n\n\nChanged the AR slightly ......Changed the colours slightly and slight sharpen ..........a few more but not a great deal was already real nice cam..Would have been better if had them source files but \n\nLeft audio untouched ........Sample included so check it out\n\n &lt;a href=&quot;\nhttp://img69.imageshack.us/img69/7691/vlcsnap2011121110h43m37.png&quot; rel=&quot;nofollow&quot; target=&quot;_NEW&quot;&gt;\nhttp://img69.imageshack.us/img69/7691/vlcsnap2011121110h43m37.png&lt;/a&gt;\n &lt;a href=&quot;\nhttp://img88.imageshack.us/img88/8383/vlcsnap2011121110h36m48.png&quot; rel=&quot;nofollow&quot; target=&quot;_NEW&quot;&gt;\nhttp://img88.imageshack.us/img88/8383/vlcsnap2011121110h36m48.png&lt;/a&gt;\n &lt;a href=&quot;\nhttp://img189.imageshack.us/img189/4205/vlcsnap2011121110h38m10.png&quot; rel=&quot;nofollow&quot; target=&quot;_NEW&quot;&gt;\nhttp://img189.imageshack.us/img189/4205/vlcsnap2011121110h38m10.png&lt;/a&gt;\n &lt;a href=&quot;\nhttp://img835.imageshack.us/img835/3434/vlcsnap2011121110h41m04.png&quot; rel=&quot;nofollow&quot; target=&quot;_NEW&quot;&gt;\nhttp://img835.imageshack.us/img835/3434/vlcsnap2011121110h41m04.png&lt;/a&gt;\n","torrent":{"xt":"urn:btih:2529ef9dedee0968d994602f44def3c1304ca846","amp;dn":"Hugo+2011+CAM+XViD+DTRG","amp;tr":["udp%3A%2F%2Ftracker.openbittorrent.com%3A80","udp%3A%2F%2Fopen.demonii.com%3A1337","udp%3A%2F%2Ftracker.coppersurfer.tk%3A6969","udp%3A%2F%2Fexodus.desync.com%3A6969"],"infoHash":"2529ef9dedee0968d994602f44def3c1304ca846","infoHashBuffer":{"type":"Buffer","data":[37,41,239,157,237,238,9,104,217,148,96,47,68,222,243,193,48,76,168,70]},"announce":[],"urlList":[]}}